<svg xmlns="http://www.w3.org/2000/svg" viewBox="0 0 313 338" preserveAspectRatio="xMidYMid meet"><path fill="#fee534" d="M259 38c-.609 4.344-1.657 8.211-3.16 12.328l-.672 1.849q-1.109 3.04-2.23 6.073l-1.576 4.304c-6.139 16.719-12.51 33.351-18.889 49.979l-.854 2.227-.732 1.906c-1.307 3.44-2.595 6.888-3.887 10.334l72 1c1.068 4.271.883 5.172-.555 9.121l-1.099 3.052-1.221 3.265-1.249 3.385C281.28 183.271 262.902 217.767 237 247l-2.301 2.602A977 977 0 0 1 228 257l-2.652 2.969C206.363 281.138 183.051 298.648 158 312c-1.025-3.143-.982-4.901.135-7.999l.833-2.353.938-2.535.965-2.674c3.339-9.183 6.895-18.282 10.488-27.367 2.004-5.067 3.993-10.14 5.985-15.213l1.215-3.091A4215 4215 0 0 0 189 223.938l.852-2.214c8.28-21.533 16.369-43.139 24.49-64.732l1.686-4.481 3.164-8.42 1.432-3.808 1.249-3.325A517 517 0 0 1 225 129l-69-1 .125 24.938c.049 29.618-1.28 58.662-5.125 88.062h-2q-4.623-12-9.234-24.006l-1.52-3.957a6991 6991 0 0 1-20.308-53.475l-.969-2.581-.944-2.519-.92-2.45q-.879-2.353-1.75-4.708c-1.19-3.219-2.4-6.413-3.71-9.586-3.961-9.775-2.109-16.766 1.793-26.28l1.066-2.623C118.003 95.773 125.775 84.664 135 74q1.284-1.623 2.562-3.25C163.628 41.342 221.303 19.152 259 38"/><path fill="#060606" d="M7 128h74c6.113 15.004 12.176 29.931 17.89 45.073a2849 2849 0 0 0 7.423 19.305c5.077 13.12 10.244 26.204 15.435 39.278 3.055 7.704 6.056 15.422 8.948 23.189 1.976 5.3 3.996 10.584 6.031 15.862l.966 2.506q1.962 5.088 3.926 10.173C152 310.273 152 310.273 152 313c-6-1.581-10.859-4.738-16.062-8l-2.834-1.769c-7.41-4.682-14.345-9.652-21.104-15.231l-3.078-2.5C89.24 269.32 72.123 251.462 57 231l-1.351-1.8c-19.643-26.175-34.28-55.87-45.149-86.638l-1.063-3-.968-2.808-.862-2.49C7 132 7 132 7 128"/><path fill="#fee534" d="M299 128c1.065 3.676.766 5.494-.555 9.121l-1.099 3.052-1.221 3.265-1.249 3.385C281.28 183.271 262.902 217.767 237 247l-2.301 2.602A977 977 0 0 1 228 257l-2.652 2.969C206.363 281.138 183.051 298.648 158 312c-1.025-3.143-.982-4.901.135-7.999l.833-2.353.938-2.535.965-2.674c3.339-9.183 6.895-18.282 10.488-27.367 2.004-5.067 3.993-10.14 5.985-15.213l1.215-3.091A4215 4215 0 0 0 189 223.938l.852-2.213c4.654-12.098 9.227-24.226 13.793-36.358l.888-2.361q4.479-11.893 8.942-23.791 1.684-4.486 3.37-8.972l1.585-4.229q1.095-2.923 2.194-5.845l1.249-3.331L223 134l.898-2.323C225 130 225 130 226.762 129.263c2.693-.316 5.329-.427 8.041-.468l3.542-.061 3.819-.05 3.947-.063q5.198-.083 10.394-.153 4.206-.06 8.412-.129c23.941-.378 23.941-.378 34.083-.339"/><path fill="#fae27d" d="M155 128h1c.28 37.975-.067 75.284-5 113h-2a15368 15368 0 0 1-17.941-46.767 4675 4675 0 0 0-7.844-20.44 9727 9727 0 0 1-3.648-9.454q-.875-2.264-1.755-4.527-1.219-3.135-2.425-6.277l-1.4-3.613C113 147 113 147 113 144h3l.812 3.062c1.083 3.798 2.601 7.321 4.188 10.938a504 504 0 0 1 2.305 6.223c.688 1.877.688 1.877 1.883 3.902 1.147 2.648.941 5.028.812 7.875h2l1 6 3 1c1.098 2.109 1.098 2.109 2.062 4.75l.973 2.609q.982 2.69 1.953 5.383c.838 2.419.838 2.419 3.137 3.633L142 201c.25 3.688.25 3.688 0 7h4l1 4h2l-.289-1.793c-.68-4.844-.744-7.688 1.289-12.207.524-2.982.751-5.985 1-9l.246-2.629c1.375-15.881 1.995-31.877 1.594-47.812.175-3.899.949-6.87 2.16-10.559m-13 61h2v10l-2 1c-1.286-7.429-1.286-7.429 0-11"/><path fill="#fae27d" d="M293 128h6c1.268 3.568.724 5.608-.555 9.121l-1.099 3.052-1.221 3.265-1.249 3.385C281.28 183.271 262.902 217.767 237 247l-2.301 2.602A977 977 0 0 1 228 257l-2.652 2.969C206.363 281.138 183.051 298.648 158 312c-1.224-3.938-.483-6.161 1-10h1v5c4.14-1.461 7.396-3.505 11-6l4.312-2.812c4.06-2.698 7.874-5.639 11.696-8.661 2.232-1.711 4.559-3.118 6.992-4.527 4.054-2.705 7.601-5.495 11-9a394 394 0 0 1 5.512-4.633c1.612-1.318 1.612-1.318 2.488-3.367h2v-2c1.968-1.86 4.056-3.534 6.152-5.246 2.096-1.714 2.096-1.714 2.848-4.754l3-1q2.507-2.995 5-6h2l.625-2c1.866-4.072 4.351-7.688 7.375-11h2l.812-2.312c1.173-2.655 2.145-3.727 4.188-5.688l1.562-2.625C252 223 252 223 254 222a395 395 0 0 0 3-6 203 203 0 0 1 2.312-3.688c2.707-4.232 5.035-8.636 7.356-13.089C268 197 268 197 270 196c.99-2.141.99-2.141 1.875-4.688 1.602-4.197 3.547-7.617 6.125-11.312a145 145 0 0 0 2-5c3.71-9.557 3.71-9.557 5.938-13.812 5.216-10.19 8.532-21.327 12.062-32.188h-5z"/><path fill="#fae27d" d="M259 38c-.609 4.344-1.657 8.211-3.16 12.328l-.672 1.849q-1.109 3.04-2.23 6.073l-1.576 4.304c-6.139 16.719-12.51 33.351-18.889 49.979l-.854 2.227-.732 1.906c-1.307 3.44-2.595 6.888-3.887 10.334l62 1v1q-11.528.232-23.055.443-5.353.097-10.707.205-5.174.104-10.348.195-2.918.054-5.836.118c-5.378.09-10.518.094-15.849-.714-5.626-.63-11.331-.494-16.986-.563l-4.271-.063a5926 5926 0 0 0-11.165-.153q-5.712-.077-11.424-.161-11.18-.16-22.359-.307v-1c22.009-.773 43.977-1.146 66-1 2.729-5.281 5.364-10.429 7.125-16.125 1.248-3.918 2.555-7.775 4.027-11.613 1.16-3.093 2.249-6.21 3.348-9.324 1.987-5.571 4.093-11.004 6.652-16.34 2.881-6.103 5.046-12.167 6.934-18.645A54 54 0 0 1 253.75 47c1.259-3.022 1.358-4.792 1.25-8-9.294-2.569-17.878-3.44-27.5-3.312l-3.684-.01c-7.116.042-13.893.623-20.896 1.895-3.014.441-5.878.498-8.92.427 15.461-9.433 49.177-7.912 65 0"/><path fill="#fae27d" d="M223 134h1c-.263 5.683-1.192 9.897-3.945 14.871-1.906 3.848-2.937 7.996-4.055 12.129h-2c.636-6.001 2.877-11.304 5.062-16.875l1.143-2.953q1.39-3.589 2.795-7.172m-10 27 2 3c-.461 2.043-.461 2.043-1.375 4.188l-.898 2.167L212 172h-2l-1 5c-1.353-4.059-.152-5.771 1.438-9.688l1.433-3.574zm-6 16h1c.597 5.823-1.472 9.921-4 15h-2c3.075-10.558 3.075-10.558 5-15m-6 15h1c-.615 7.508-.615 7.508-2.562 10L198 203c.672-3.806 1.727-7.352 3-11m-4 11c1.086 3.242.94 5.023-.312 8.188l-.801 2.105C195 215 195 215 193 216l1.438-4.812.808-2.708A215 215 0 0 1 197 203m-5 13c1.647 4.042.242 6.778-1.312 10.688l-1.364 3.511C188 233 188 233 186 234c.684-4.176 2.014-7.881 3.562-11.812l1.379-3.52zm-7 18c1 3 1 3 .062 5.188L184 241l-1-2c.938-2.625.938-2.625 2-5"/><path fill="#fae27d" d="M143 66c0 3 0 3-2.25 5.562-2.309 2.047-4.016 3.17-6.75 4.438a562 562 0 0 1 2.812-3.875l1.583-2.18C140 68 140 68 143 66m-10 10 1 2-1 3c-2.062.688-2.062.688-4 1zm-6 8 1 3c-1.404 2.264-3.197 4.021-5 6 0-3.999 1.726-5.802 4-9m-6 9v3Zm-3 4c1.253 2.951 1.01 3.974-.215 7.016l-1.723 3.234-1.714 3.266L113 113c-1.392-4.176.046-5.79 1.938-9.688l1.714-3.574zm-7 16h1c.25 5.625.25 5.625-2 9-.864 6.415.144 11.287 3 17v2h-2c-3.973-9.123-4.849-15.213-1.438-24.562z"/></svg>
